<?xml version="1.0" encoding="UTF-8"?><svg id="Layer_1" xmlns="http://www.w3.org/2000/svg" width="297mm" height="210mm" viewBox="0 0 841.8898 595.2756"><defs><style>.cls-1{stroke-width:6px;}.cls-1,.cls-2{fill:none;stroke:#676766;stroke-miterlimit:10;}.cls-3{fill:#676766;}.cls-4{fill:#4bad38;}.cls-4,.cls-5,.cls-6,.cls-7,.cls-2,.cls-8{opacity:.13;}.cls-5{fill:#233f93;}.cls-6{fill:#cc1236;}.cls-7{fill:#cdcc01;}</style></defs><g class="cls-8"><path class="cls-3" d="M69.2812,57.1675v-4.9868l28.4473-12.0034v5.248l-22.5586,9.2686,22.5586,9.3193v5.2559l-28.4473-12.1016Z"/><path class="cls-3" d="M117.8481,76.4468l11.7832-42.041h4.2275l-11.7515,42.041h-4.2593Z"/><path class="cls-3" d="M166.2832,57.1523l-28.4473,12.1167v-5.2559l22.5293-9.3193-22.5293-9.2686v-5.248l28.4473,12.019v4.9561Z"/></g><g class="cls-8"><path class="cls-3" d="M621.0273,477.625v-4.9873l28.4473-12.0029v5.248l-22.5586,9.2686,22.5586,9.3193v5.2559l-28.4473-12.1016Z"/><path class="cls-3" d="M669.5938,496.9043l11.7832-42.041h4.2285l-11.752,42.041h-4.2598Z"/><path class="cls-3" d="M718.0293,477.6094l-28.4473,12.1172v-5.2559l22.5293-9.3193-22.5293-9.2686v-5.248l28.4473,12.0186v4.9561Z"/></g><circle class="cls-6" cx="205.5" cy="179.223" r="17.777"/><circle class="cls-5" cx="678.7461" cy="289.2165" r="17.7405"/><circle class="cls-7" cx="411" cy="448.2119" r="17.7448"/><circle class="cls-4" cx="554" cy="70.6859" r="17.8141"/><line class="cls-2" x1="167" y1="537" x2="271" y2="455.4573"/><line class="cls-2" x1="352.627" y1="146.3143" x2="456.627" y2="64.7716"/><line class="cls-2" x1="703.3112" y1="233.1174" x2="807.3112" y2="151.5747"/><line class="cls-2" x1="29.587" y1="297.6378" x2="133.587" y2="216.0951"/><line class="cls-2" x1="689.627" y1="547.4995" x2="793.627" y2="465.9568"/><g class="cls-8"><line class="cls-1" x1="317.5171" y1="531.4599" x2="352.5171" y2="579.4599"/><line class="cls-1" x1="357.0342" y1="535.5225" x2="313" y2="575.3973"/></g><g class="cls-8"><line class="cls-1" x1="206.2204" y1="283.3193" x2="241.2204" y2="331.3193"/><line class="cls-1" x1="245.7375" y1="287.382" x2="201.7034" y2="327.2567"/></g></svg>