<svg id="Layer_1" data-name="Layer 1" xmlns="http://www.w3.org/2000/svg" viewBox="0 0 778.34 546.82"><defs><style>.cls-1,.cls-3,.cls-4,.cls-5,.cls-6,.cls-7{opacity:0.13;}.cls-2{fill:#676766;}.cls-3{fill:#cc1236;}.cls-4{fill:#233f93;}.cls-5{fill:#cdcc01;}.cls-6{fill:#4bad38;}.cls-7,.cls-8{fill:none;stroke:#676766;stroke-miterlimit:10;}.cls-8{stroke-width:6px;}</style></defs><g class="cls-1"><path class="cls-2" d="M69.28,57.17v-5l28.45-12v5.25L75.17,54.69,97.73,64v5.26Z" transform="translate(-29.28 -34.41)"/><path class="cls-2" d="M117.85,76.45l11.78-42h4.23l-11.75,42Z" transform="translate(-29.28 -34.41)"/><path class="cls-2" d="M166.28,57.15,137.84,69.27V64l22.53-9.32-22.53-9.26V40.18l28.44,12Z" transform="translate(-29.28 -34.41)"/></g><g class="cls-1"><path class="cls-2" d="M621,477.62v-5l28.44-12v5.25l-22.55,9.27,22.55,9.32v5.26Z" transform="translate(-29.28 -34.41)"/><path class="cls-2" d="M669.59,496.9l11.79-42h4.23l-11.76,42Z" transform="translate(-29.28 -34.41)"/><path class="cls-2" d="M718,477.61l-28.45,12.12v-5.26l22.53-9.32-22.53-9.27v-5.25l28.45,12Z" transform="translate(-29.28 -34.41)"/></g><circle class="cls-3" cx="176.22" cy="144.82" r="17.78"/><circle class="cls-4" cx="649.47" cy="254.81" r="17.74"/><circle class="cls-5" cx="381.72" cy="413.81" r="17.74"/><circle class="cls-6" cx="524.72" cy="36.28" r="17.81"/><line class="cls-7" x1="137.72" y1="502.59" x2="241.72" y2="421.05"/><line class="cls-7" x1="323.35" y1="111.91" x2="427.35" y2="30.37"/><line class="cls-7" x1="674.03" y1="198.71" x2="778.03" y2="117.17"/><line class="cls-7" x1="0.31" y1="263.23" x2="104.31" y2="181.69"/><line class="cls-7" x1="660.35" y1="513.09" x2="764.35" y2="431.55"/><g class="cls-1"><line class="cls-8" x1="288.24" y1="497.05" x2="323.24" y2="545.05"/><line class="cls-8" x1="327.76" y1="501.12" x2="283.72" y2="540.99"/></g><g class="cls-1"><line class="cls-8" x1="176.94" y1="248.91" x2="211.94" y2="296.91"/><line class="cls-8" x1="216.46" y1="252.98" x2="172.42" y2="292.85"/></g></svg>