<svg id="Layer_1" data-name="Layer 1" xmlns="http://www.w3.org/2000/svg" viewBox="0 0 282.6778 399"><path d="M350.6416,79.4132,324.8891,367.9083,209.13,400,93.69,367.9526,67.9638,79.4131Z" transform="translate(-67.9638 -1)" style="fill:#e44d26"/><path d="M209.3027,375.47l93.5393-25.932,22.0061-246.5328H209.3027Z" transform="translate(-67.9638 -1)" style="fill:#f16529"/><path d="M159.24,173.7824h50.0623V138.3942h-88.737l.8466,9.4939,8.6983,97.5206h79.1921V210.0205H162.4749Zm7.9759,89.3209H131.6918l4.9574,55.565L209.14,338.7907l.1629-.0444V301.9276l-.1551.041L169.736,291.3268Z" transform="translate(-67.9638 -1)" style="fill:#ebebeb"/><path d="M94.2636,1h17.9839V18.7678h16.4514V1h17.985V54.8053H128.7V36.7882H112.2486V54.8053H94.2647V1Zm76.0685,17.8431h-15.83V1h49.6568V18.8431h-15.84V54.8053H170.3355V18.8431h-.0034ZM212.04,1h18.7518l11.5349,18.9058L253.85,1h18.76V54.8053H254.6989V28.1364L242.3263,47.2671h-.31l-12.38-19.1307V54.8053H212.04Zm69.52,0h17.9894V37.0209h25.29V54.8053H281.5584V1Z" transform="translate(-67.9638 -1)"/><path d="M209.1808,245.4087h43.5768l-4.1087,45.8959L209.18,301.9575V338.774l72.5482-20.1057.5318-5.9792,8.3172-93.1658.8631-9.5028H209.1808Zm0-71.7127v.0864H294.66l.7091-7.9537,1.6134-17.9406.8454-9.4939H209.1808V173.696Z" transform="translate(-67.9638 -1)" style="fill:#fff"/></svg>