<svg id="Layer_1" data-name="Layer 1" xmlns="http://www.w3.org/2000/svg" viewBox="0 0 399.8555 140.5908"><path d="M348.1874,240.0958v18.2808h33.0268c6.7669,0,18.3818-4.949,18.7858-18.7858v-7.07a18.6533,18.6533,0,0,0-18.7858-18.7858H364.7513v-8.4839H397.374V186.8692h-31.31c-8.08,0-18.8869,6.666-18.8869,19.0889v6.3629c0,12.4229,10.7059,18.7858,18.8869,18.7858,22.7248.101-5.454,0,15.5538,0v8.888m-210.3812-4.343s17.6749-1.515,17.6749-24.3408S167.5,186.3642,167.5,186.3642H128.9183v72.0124H148.31V241.0048l16.7659,17.3718H193.76l-22.5229-22.7248Zm-7.4739-14.7459H148.31V204.4431H163.864s4.343,1.616,4.343,8.1809-4.444,8.2819-4.444,8.2819Zm73.0224-34.0367H217.0906c-14.0389,0-18.7859,12.7259-18.7859,18.7859v52.7215H218V245.7517h18.4829v12.6249h19.0888V205.6551c0-15.3519-13.9379-18.7859-18.7858-18.7859Zm-.303,38.4807H217.8985V207.877s0-3.9389,6.161-3.9389h6.7669c5.454,0,5.555,3.9389,5.555,3.9389V225.35ZM264.56,186.8692H285.063v71.5074H264.56Zm49.2876,53.0246V186.8692H293.4459v71.5074h47.9746V239.8938Z" transform="translate(-0.1445 -117.7858)" style="fill:#c00"/><path d="M7.2144,258.3766H87.0037s-15.2509-69.5884,35.2487-97.7672c11.0089-5.3529,46.0556-25.3507,103.4231,17.0689,1.818-1.515,3.535-2.727,3.535-2.727s-52.52-52.4185-110.9981-46.5606c-29.3907,2.626-65.5484,29.3908-86.7582,64.7405S7.2144,258.3766,7.2144,258.3766Z" transform="translate(-0.1445 -117.7858)" style="fill:#c00"/><path d="M7.2144,258.3766H87.0037s-15.2509-69.5884,35.2487-97.7672c11.0089-5.3529,46.0556-25.3507,103.4231,17.0689,1.818-1.515,3.535-2.727,3.535-2.727s-52.52-52.4185-110.9981-46.5606c-29.3907,2.626-65.5484,29.3908-86.7582,64.7405S7.2144,258.3766,7.2144,258.3766Z" transform="translate(-0.1445 -117.7858)" style="fill:#c00"/><path d="M7.2144,258.3766H87.0037s-15.2509-69.5884,35.2487-97.7672c11.0089-5.3529,46.0556-25.3507,103.4231,17.0689,1.818-1.515,3.535-2.727,3.535-2.727s-52.52-52.4185-110.9981-46.5606c-29.4917,2.626-65.6494,29.3908-86.8592,64.7405S7.2144,258.3766,7.2144,258.3766Zm166.2446-124.33.4039-6.767c-.9089-.505-3.4339-1.7169-9.7969-3.5349l-.404,6.6659C166.995,131.5217,170.227,132.7337,173.459,134.0467Z" transform="translate(-0.1445 -117.7858)" style="fill:#c00"/><path d="M163.864,155.4585l-.404,6.3629a56.3221,56.3221,0,0,1,9.999,1.212l.4039-6.2619A71.5189,71.5189,0,0,0,163.864,155.4585Zm-37.37-31.5117h1.01l-2.02-6.161a80.5855,80.5855,0,0,0-9.6959.606l1.9189,5.959A85.2671,85.2671,0,0,1,126.4944,123.9468Zm4.8479,37.1676,2.323,6.969a63.9025,63.9025,0,0,1,8.7869-3.535l-2.222-6.6659A73.3009,73.3009,0,0,0,131.3423,161.1144ZM85.4887,134.5517l-4.545-6.969c-2.5249,1.313-5.1509,2.727-7.8779,4.343l4.646,7.07c2.6259-1.6159,5.1509-3.1309,7.7769-4.4439Zm20.7048,45.45,4.848,7.2719A56.0888,56.0888,0,0,1,117,180.1023l-4.5449-6.868a55.8755,55.8755,0,0,0-6.262,6.767ZM91.5487,212.523l8.1809,6.4639a80.6576,80.6576,0,0,1,2.121-11.8168l-7.272-5.757a96.0272,96.0272,0,0,0-3.03,11.11ZM47.311,164.5484,40.14,158.2865c-2.626,2.5249-5.1509,5.05-7.4739,7.5749l7.7769,6.6659A102.3239,102.3239,0,0,1,47.311,164.5484ZM16.8093,209.695,5.1944,205.4531c-1.919,4.3429-4.04,9.3929-5.05,12.12l11.6149,4.2419C13.0723,218.3809,15.1933,213.432,16.8093,209.695Zm73.2244,28.4818a102.6073,102.6073,0,0,0,1.212,12.7259l12.12,4.3429a133.4864,133.4864,0,0,1-2.424-13.13Z" transform="translate(-0.1445 -117.7858)" style="fill:#c00"/></svg>